:version 1.10
:name ASF
:units
  mass 1
  length 1
  angle deg
:documentation
  ASF file generated by Kaydara
:root
  axis xyz
  order  tx ty tz rx ry rz
  position 0 0 0
  orientation 0 0 0
:bonedata
  begin
    id 1
    name RightUpLegDummy
    direction -0.718183 -0.695806 0.00816078
    length 4.904
    axis 0 0 0 xyz
  end
  begin
    id 2
    name RightUpLeg
    direction -0.0736652 -0.994202 0.0783343
    length 17.4976
    axis -2.72909 -3.00389 -4.00133 xyz
    dof rx ry rz
  end
  begin
    id 3
    name RightLeg
    direction -0.0389037 -0.994596 -0.0962598
    length 16.5821
    axis 3.95836 -18.5909 -4.46993 xyz
    dof rx ry rz
  end
  begin
    id 4
    name RightFoot
    direction -0.311643 -0.412678 0.855906
    length 3.77069
    axis -1.99483 -18.8351 -3.27644 xyz
    dof rx ry rz
  end
  begin
    id 5
    name RightToes
    direction -0.317852 0.0389852 0.947339
    length 3.85082
    axis -2.00228 -18.1713 -3.25211 xyz
    dof rx ry rz
  end
  begin
    id 6
    name SpineDummy
    direction 8.3039e-015 1 4.44677e-016
    length 4.6813
    axis 0 0 0 xyz
  end
  begin
    id 7
    name Spine
    direction -0.000262373 0.999988 0.00493267
    length 10.1015
    axis -0.00246081 0.00062579 0.0150362 xyz
    dof rx ry rz
  end
  begin
    id 8
    name Spine1
    direction 0 0 0
    length 0
    axis -0.00349562 0.000650293 0.0196666 xyz
    dof rx ry rz
  end
  begin
    id 9
    name HEadDummy
    direction -0.000343232 0.999999 0.00123745
    length 3.43865
    axis -0.00349562 0.000650293 0.0196666 xyz
  end
  begin
    id 10
    name HEad
    direction -0.0461221 0.980933 0.188796
    length 5.12695
    axis -0.00351404 -7.04812 0.0199272 xyz
    dof rx ry rz
  end
  begin
    id 11
    name LeftShoulder1Dummy
    direction 0.998904 -0.0399089 -0.0244534
    length 3.5433
    axis -0.00349562 0.000650293 0.0196666 xyz
  end
  begin
    id 12
    name LeftShoulder1
    direction 0.99951 1.64443e-005 0.0312999
    length 4.05031
    axis -0.00349562 0.000650293 0.0196666 xyz
    dof rx ry rz
  end
  begin
    id 13
    name LeftArm
    direction 0.984791 0.0515299 0.165927
    length 12.9126
    axis -64.823 -10.7743 5.20463 xyz
    dof rx ry rz
  end
  begin
    id 14
    name LeftForeArm
    direction 0.984968 0.0534808 0.16425
    length 10.8596
    axis -30.0462 -7.70601 1.87451 xyz
    dof rx ry rz
  end
  begin
    id 15
    name LeftHand
    direction 0.975871 0.0289682 0.216418
    length 6.62295
    axis -20.1348 -6.98077 1.86072 xyz
    dof rx ry rz
  end
  begin
    id 16
    name RightShoulderDummy
    direction -0.998877 -0.0405946 -0.0244307
    length 3.5433
    axis -0.00349562 0.000650293 0.0196666 xyz
  end
  begin
    id 17
    name RightShoulder
    direction -0.998933 -0.0249743 -0.0388558
    length 4.05031
    axis -0.0205316 -4.02113 1.41395 xyz
    dof rx ry rz
  end
  begin
    id 18
    name RightArm
    direction -0.997559 0.068664 0.0127103
    length 12.9638
    axis -67.3882 1.84188 -6.15987 xyz
    dof rx ry rz
  end
  begin
    id 19
    name RightForeArm
    direction -0.991508 0.0912848 0.0926241
    length 10.8312
    axis -22.1975 3.41087 -4.28711 xyz
    dof rx ry rz
  end
  begin
    id 20
    name RightHand
    direction -0.989262 0.0600788 0.133232
    length 6.57864
    axis -12.2911 2.17515 -4.39675 xyz
    dof rx ry rz
  end
  begin
    id 21
    name LeftUpLegDummy
    direction 0.718183 -0.695806 0.00816078
    length 4.904
    axis 0 0 0 xyz
  end
  begin
    id 22
    name LeftUpLeg
    direction 0.0831398 -0.99469 0.0606531
    length 17.4976
    axis -1.71016 2.29552 4.63832 xyz
    dof rx ry rz
  end
  begin
    id 23
    name LeftLeg
    direction 0.0498442 -0.991778 -0.117862
    length 16.5821
    axis 5.13757 15.5727 5.13348 xyz
    dof rx ry rz
  end
  begin
    id 24
    name LeftFoot
    direction 0.269026 -0.433896 0.85986
    length 3.77069
    axis -0.576502 15.6961 4.10267 xyz
    dof rx ry rz
  end
  begin
    id 25
    name LeftToes
    direction 0.277311 0.0251143 0.960452
    length 3.85048
    axis -0.576502 15.6961 4.10267 xyz
    dof rx ry rz
  end
:hierarchy
  begin
    root RightUpLegDummy SpineDummy LeftUpLegDummy
    RightUpLegDummy RightUpLeg
    RightUpLeg RightLeg
    RightLeg RightFoot
    RightFoot RightToes
    SpineDummy Spine
    Spine Spine1
    Spine1 HEadDummy LeftShoulder1Dummy RightShoulderDummy
    HEadDummy HEad
    LeftShoulder1Dummy LeftShoulder1
    LeftShoulder1 LeftArm
    LeftArm LeftForeArm
    LeftForeArm LeftHand
    RightShoulderDummy RightShoulder
    RightShoulder RightArm
    RightArm RightForeArm
    RightForeArm RightHand
    LeftUpLegDummy LeftUpLeg
    LeftUpLeg LeftLeg
    LeftLeg LeftFoot
    LeftFoot LeftToes
  end

:SAMPLES-PER-SECOND 30
:FULLY-SPECIFIED
:DEGREES
16
root  -10.3213 39.5521 38.5804 -1.14237 -6.98938 0.283212
RightUpLeg  -9.29978 -3.42925 4.23316
RightLeg  17.7253 0.133057 -4.31137
RightFoot  -9.66379 0.0505566 -0.764695
RightToes  -5.82073e-011 -3.18055e-015 -2.98177e-016
Spine  7.98609 0.414315 4.2467
Spine1  2.3377 1.06444 -1.07011
HEad  -14.8961 6.54171 0.382116
LeftShoulder1  -3.88251e-019 9.70628e-020 -3.87848e-018
LeftArm  -2.45378 26.9031 -73.6322
LeftForeArm  -23.0887 -63.344 22.1635
LeftHand  -2.62172 -12.2615 17.7434
RightShoulder  6.21362 9.87811 30.0561
RightArm  15.8275 -28.6636 49.614
RightForeArm  -32.538 57.8283 -42.1967
RightHand  -4.45214 10.4437 -31.7241
LeftUpLeg  -10.9904 -1.60811 -3.23188
LeftLeg  18.8097 5.14699 8.0821
LeftFoot  -8.37749 0.0621272 -2.07544
LeftToes  5.79026e-011 9.70705e-012 -3.73859e-011
17
root  -10.1985 39.5352 38.415 -1.32227 -7.42774 0.0858798
RightUpLeg  -9.4055 -3.55057 4.26207
RightLeg  17.7764 0.717536 -4.06472
RightFoot  -9.52758 0.0475035 -0.658798
RightToes  -5.82073e-011 -3.18055e-015 -2.98177e-016
Spine  8.97787 0.520573 4.88637
Spine1  2.08721 1.35996 -1.73577
HEad  -14.6992 6.42471 0.663925
LeftShoulder1  -3.88251e-019 9.70628e-020 -3.87848e-018
LeftArm  -2.40942 24.1711 -75.232
LeftForeArm  -21.553 -58.9601 18.1007
LeftHand  -3.50858 -13.39 22.1684
RightShoulder  5.98553 9.88316 28.8019
RightArm  13.2335 -26.6873 54.5522
RightForeArm  -31.9205 53.2191 -34.4465
RightHand  -4.62408 10.0453 -33.6736
LeftUpLeg  -11.1729 -0.752834 -3.16027
LeftLeg  19.274 5.44073 8.36495
LeftFoot  -9.13825 0.0799502 -3.01615
LeftToes  5.79026e-011 9.70705e-012 -3.73859e-011
18
root  -10.0618 39.4054 38.2497 -1.65908 -7.47786 -0.161084
RightUpLeg  -10.0683 -5.18366 4.44315
RightLeg  19.2165 2.42076 -4.241
RightFoot  -10.1165 0.0407336 -0.450322
RightToes  -5.82073e-011 -3.18055e-015 -2.98177e-016
Spine  10.4353 0.551824 4.91813
Spine1  1.86857 1.35855 -1.24247
HEad  -14.8517 6.26047 0.811668
LeftShoulder1  -3.88251e-019 9.70628e-020 -3.87848e-018
LeftArm  -2.74472 22.6473 -76.6979
LeftForeArm  -18.0551 -53.1188 14.3648
LeftHand  -3.87475 -13.4645 24.2815
RightShoulder  5.98538 9.9212 28.7227
RightArm  13.0238 -25.3969 55.4355
RightForeArm  -27.8698 48.0068 -28.4048
RightHand  -3.91347 9.30558 -30.0169
LeftUpLeg  -11.9328 -0.631833 -3.09386
LeftLeg  21.0092 5.24126 8.95244
LeftFoot  -9.80141 0.0564041 -2.8725
LeftToes  5.79026e-011 9.70705e-012 -3.73859e-011
19
root  -9.91717 39.1671 38.0925 -2.03649 -7.17465 -0.507788
RightUpLeg  -11.3 -8.05025 4.9357
RightLeg  21.7302 5.05787 -4.85885
RightFoot  -11.1826 0.0362852 -0.235914
RightToes  -5.82073e-011 -3.18055e-015 -2.98177e-016
Spine  11.7788 0.504732 4.83265
Spine1  2.3762 1.20826 -0.401535
HEad  -15.7434 5.97272 1.14122
LeftShoulder1  -3.88251e-019 9.70628e-020 -3.87848e-018
LeftArm  -3.45871 22.394 -77.7059
LeftForeArm  -14.693 -46.7489 11.381
LeftHand  -3.38788 -12.8162 22.0543
RightShoulder  6.18594 9.99722 29.6575
RightArm  14.1218 -25.6615 52.7728
RightForeArm  -19.7438 43.4565 -24.5716
RightHand  -2.83866 8.79784 -22.9077
LeftUpLeg  -13.2358 -1.27417 -2.94781
LeftLeg  23.6781 4.95225 9.8724
LeftFoot  -10.3909 0.0252066 -2.25858
LeftToes  5.79026e-011 9.70705e-012 -3.73859e-011
20
root  -9.77993 38.9018 37.9713 -2.54614 -6.80631 -0.756492
RightUpLeg  -12.4434 -10.057 5.24398
RightLeg  24.4101 6.87207 -5.52971
RightFoot  -12.2833 0.0378138 -0.219015
RightToes  -5.82073e-011 -3.18055e-015 -2.98177e-016
Spine  12.4544 0.453017 4.59386
Spine1  4.32428 1.03146 0.374236
HEad  -17.665 5.74576 1.52756
LeftShoulder1  -3.88251e-019 9.70628e-020 -3.87848e-018
LeftArm  -4.147 23.7062 -77.9416
LeftForeArm  -13.993 -40.7323 9.06339
LeftHand  -2.54205 -11.8347 17.6635
RightShoulder  6.49912 10.1492 31.0219
RightArm  14.8503 -27.5829 48.2028
RightForeArm  -11.2368 39.2935 -21.6942
RightHand  -2.18341 8.85595 -17.6744
LeftUpLeg  -14.3753 -1.48488 -2.88879
LeftLeg  26.2937 4.4078 10.6502
LeftFoot  -10.9377 0.00263837 -1.70677
LeftToes  5.79026e-011 9.70705e-012 -3.73859e-011
21
root  -9.66335 38.7283 37.9146 -3.1386 -6.46759 -0.64562
RightUpLeg  -12.8897 -10.2185 4.7932
RightLeg  26.297 6.89723 -5.86401
RightFoot  -13.0387 0.039412 -0.277945
RightToes  -5.82073e-011 -3.18055e-015 -2.98177e-016
Spine  12.4946 0.38214 3.84936
Spine1  7.35714 0.724854 1.25037
HEad  -20.441 5.78997 1.73938
LeftShoulder1  -3.88251e-019 9.70628e-020 -3.87848e-018
LeftArm  -4.20175 26.8766 -77.2608
LeftForeArm  -16.1436 -35.3338 7.25632
LeftHand  -1.80398 -9.83436 14.3547
RightShoulder  6.9168 10.351 32.7894
RightArm  14.8092 -30.4463 42.6437
RightForeArm  -6.87708 34.1848 -18.3771
RightHand  -1.95156 7.83482 -17.0341
LeftUpLeg  -14.7102 -0.671176 -3.1723
LeftLeg  27.7287 3.28177 10.6219
LeftFoot  -11.2746 -0.0144463 -1.01425
LeftToes  5.79026e-011 9.70705e-012 -3.73859e-011
22
root  -9.56591 38.7231 37.9298 -3.32527 -6.12107 -0.295264
RightUpLeg  -12.8389 -10.405 4.17055
RightLeg  26.5438 6.86494 -5.93056
RightFoot  -13.1143 0.0392442 -0.177578
RightToes  -5.82073e-011 -3.18055e-015 -2.98177e-016
Spine  12.3219 0.218399 2.95921
Spine1  10.0526 0.277687 2.00525
HEad  -23.2395 6.00883 1.90228
LeftShoulder1  -3.88251e-019 9.70628e-020 -3.87848e-018
LeftArm  -4.33563 31.944 -75.8236
LeftForeArm  -17.6756 -30.0713 5.31705
LeftHand  -1.32249 -6.95346 13.0978
RightShoulder  7.46344 10.5663 35.124
RightArm  14.1281 -33.7717 35.7267
RightForeArm  -6.90837 27.6294 -14.554
RightHand  -1.84771 5.56874 -19.3438
LeftUpLeg  -14.4566 0.344392 -3.693
LeftLeg  27.4733 2.18806 9.91945
LeftFoot  -11.181 -0.0250647 -0.320302
LeftToes  5.79026e-011 9.70705e-012 -3.73859e-011
23
root  -9.47964 38.8761 38.0065 -2.58197 -5.86133 -0.0603025
RightUpLeg  -12.8469 -10.3278 3.89918
RightLeg  25.1338 6.55169 -5.80999
RightFoot  -12.4353 0.0359569 0.0986232
RightToes  -5.82073e-011 -3.18055e-015 -2.98177e-016
Spine  12.0461 -0.0240495 2.51463
Spine1  11.4029 -0.150782 2.28413
HEad  -25.1165 6.19402 2.12967
LeftShoulder1  -3.88251e-019 9.70628e-020 -3.87848e-018
LeftArm  -9.832 38.7784 -73.6974
LeftForeArm  -11.4104 -24.4263 1.35518
LeftHand  -1.06691 -4.65339 13.0389
RightShoulder  8.00489 10.7668 37.3806
RightArm  10.709 -37.8252 27.117
RightForeArm  -6.64345 20.8325 -10.5988
RightHand  -1.54458 2.84667 -21.3356
LeftUpLeg  -14.3477 0.486548 -4.13361
LeftLeg  25.8384 2.13114 9.29494
LeftFoot  -10.6358 -0.0221287 -0.289278
LeftToes  5.79026e-011 9.70705e-012 -3.73859e-011
